<svg version="1.1" xmlns="http://www.w3.org/2000/svg" viewBox="0 0 606.2706604003907 767.7552490234375" width="606.2706604003907" height="767.7552490234375">
  <!-- svg-source:excalidraw -->
  
  <defs>
    <style class="style-fonts">
      @font-face {
        font-family: "Virgil";
        src: url("https://excalidraw.com/Virgil.woff2");
      }
      @font-face {
        font-family: "Cascadia";
        src: url("https://excalidraw.com/Cascadia.woff2");
      }
      @font-face {
        font-family: "Assistant";
        src: url("https://excalidraw.com/Assistant-Regular.woff2");
      }
    </style>
    
  </defs>
  <rect x="0" y="0" width="606.2706604003907" height="767.7552490234375" fill="#ffffff"></rect><g stroke-linecap="round" transform="translate(201.10929481159718 33.63228698905118) rotate(0 84.56018455852009 19.191925048828125)"><path d="M-1.33 -3.45 C38.35 1.6, 85.78 2.17, 169.63 -3.71 M-0.17 0.55 C55.34 1.54, 113.74 1.36, 167.67 0.84 M172.38 0.62 C168.49 4.58, 169.8 19.38, 169.74 41.37 M170.3 -0.09 C170.79 7.66, 167.88 19.92, 170.62 38.23 M165.68 35.43 C131.57 36.21, 96.6 41.41, -0.08 35.41 M168.81 36.99 C122.36 41.17, 71.54 43.59, -0.65 36.99 M3.03 40.99 C-0.55 26.93, 3.79 11.44, 3.03 0.94 M0.95 38.08 C-0.67 32.35, 0.87 23.8, 1.79 1.63" stroke="#1e1e1e" stroke-width="1" fill="none"></path></g><g transform="translate(218.40400695800787 45.93242916466261) rotate(0 67.26547241210938 6.891782873216698)"><text x="67.26547241210938" y="0" font-family="Cascadia, Segoe UI Emoji" font-size="11.486304788694467px" fill="#1e1e1e" text-anchor="middle" style="white-space: pre;" direction="ltr" dominant-baseline="text-before-edge">AsyncFunction Object</text></g><g stroke-linecap="round" transform="translate(203.20867530476124 135.34066772460938) rotate(0 84.56018455852009 19.191925048828125)"><path d="M-0.9 -2.13 C61.22 0.82, 125.59 1.25, 171.82 3.29 M-1.61 -1.5 C54.05 2.19, 107.57 0.22, 167.77 -0.14 M170.74 -1.03 C168.71 13.24, 168.43 22.62, 167.28 42.2 M167.38 1.53 C171.17 13.73, 171.31 25.61, 170.9 37.01 M167.9 37.1 C135.02 41.66, 92.5 43.22, -0.35 34.49 M168.6 36.47 C114.6 37.6, 56.53 37.69, -1.1 36.79 M-3.46 35.3 C-0.28 28.3, -0.39 20.33, -3.09 0.13 M-1.5 37.98 C0.55 28.55, -0.17 20.68, -0.28 1.92" stroke="#1e1e1e" stroke-width="1" fill="none"></path></g><g transform="translate(217.14011383056652 140.7490270270041) rotate(0 70.62874603271484 13.78356574643334)"><text x="70.62874603271484" y="0" font-family="Cascadia, Segoe UI Emoji" font-size="11.486304788694467px" fill="#1e1e1e" text-anchor="middle" style="white-space: pre;" direction="ltr" dominant-baseline="text-before-edge">AsyncFunction Object </text><text x="70.62874603271484" y="13.783565746433359" font-family="Cascadia, Segoe UI Emoji" font-size="11.486304788694467px" fill="#1e1e1e" text-anchor="middle" style="white-space: pre;" direction="ltr" dominant-baseline="text-before-edge">Proxy</text></g><g stroke-linecap="round" transform="translate(432.3476828731206 84.7851495378793) rotate(0 69.73923118937947 16.90735534493308)"><path d="M0 0 C0 0, 0 0, 0 0 M0 0 C0 0, 0 0, 0 0 M0.45 5.87 C2.02 5.59, 3.73 0.92, 5.2 0.73 M-0.85 6.13 C1.04 3.92, 3 2.91, 4.27 -0.26 M-2.54 13.46 C-0.03 11.95, 3.76 7.69, 12.91 -0.17 M-0.63 11.15 C5.24 7.17, 8.33 1.34, 9.78 0.27 M-2.84 20.62 C7.23 15.05, 5.62 11.76, 12.03 -3.19 M0.46 18.25 C3.44 12.15, 10.22 5.97, 15.28 0.95 M2.16 27.46 C6.81 16.31, 15.11 6.95, 17.87 3.07 M0.86 25.16 C4.87 16.62, 9.56 11.94, 20.68 -1.98 M2.76 33.67 C11.35 18.92, 16.15 15.41, 29.51 2.34 M-0.59 29.52 C6.08 24.16, 11.32 14.49, 28.18 0.57 M3.33 35.1 C7.15 26.29, 14.01 20.33, 27.89 -4 M3.25 33.76 C9.38 26.59, 14.28 21.23, 30.81 0.87 M4.37 31.97 C16.98 25.2, 25.24 15.97, 34.52 -0.29 M6.36 35.86 C19.07 21.99, 29.6 9.32, 36.3 0.17 M12.01 34.3 C20.66 21.55, 30.34 10.71, 40.08 -0.02 M13 35.79 C17.22 25.8, 28.14 17.09, 43.64 0.37 M21.83 34.2 C25.13 27.72, 31.61 19.81, 46.56 -1.16 M17.44 34.91 C28.06 21.63, 40.44 8.34, 47.1 1.72 M25.75 38.3 C33.58 23.38, 44.84 7.76, 51.9 2.45 M24.76 33.42 C32.69 22.49, 41.21 12.32, 52.87 -1.51 M28.59 32.33 C37.26 30.56, 38.52 23.13, 60.07 1.73 M27.43 34.03 C36.95 23.44, 46.13 12.35, 59.06 0.67 M34.25 33.82 C45.46 22.35, 53.33 16.64, 65.76 0.94 M33.37 35.7 C43.34 25.54, 52.81 15.82, 64.26 1.64 M38.3 32.62 C51.53 18.97, 61.57 12, 72.44 -1.6 M38.47 33.26 C51.03 23.09, 58.08 12.38, 67.67 -0.09 M46.13 35.65 C52.09 25.97, 56.01 18.47, 77.02 -0.99 M42.71 35.17 C54.34 23.11, 65.14 12.28, 73.57 -1.27 M49.56 31.4 C54.9 28.47, 64.85 16.6, 79.97 2.96 M50.69 35.13 C55.93 24.48, 62.04 16.3, 79.47 -0.17 M52.97 34.66 C67.03 18.76, 75.87 5.83, 85.95 2.3 M55.7 33.84 C65.4 22.1, 73.05 12.97, 84.61 -0.9 M57.91 35.06 C69.07 23.75, 81.52 15.57, 89.92 1.6 M60.27 34.62 C68.78 24.58, 73.69 20.24, 90.04 0.26 M65.26 33.76 C75.12 25.74, 77.1 21.54, 93.78 -1.48 M64.27 33.17 C77.18 23.24, 87.64 10.5, 95.21 -1.42 M67.81 32.04 C81.91 23.29, 94.58 11.15, 100.48 -3.48 M69.43 33.18 C80.14 21.37, 91.92 12.35, 101.97 -1.47 M76.44 35.94 C90.11 22.09, 102.08 11.36, 106.66 1.42 M75.42 36.09 C85.55 21.46, 95.32 12.53, 107.23 1.49 M80.69 36.86 C93.53 17.99, 105.77 10.85, 112.77 2.04 M80.4 32.73 C93.78 19.82, 103.7 6.2, 110.9 -0.58 M82.9 32.23 C91.99 29.65, 103.09 22.49, 115.04 -0.41 M85.13 33.03 C94.96 22.17, 106.18 12.95, 115.91 -0.67 M90.21 30.84 C96.35 29.15, 100.98 22.28, 118.87 0.51 M92.81 34.43 C101.03 20.89, 113.35 12.43, 123.49 1.17 M95.95 37.74 C104.03 23.27, 111.38 22.29, 124.26 -2.6 M96.45 35.85 C107.18 23.05, 116.41 14.08, 126.51 1.84 M105 35.12 C111.62 29.41, 118.74 17.31, 129.78 2.34 M104.25 33.63 C114.1 23.87, 124.04 13.65, 131.43 1.52 M105.83 31.65 C113.68 25.77, 127.79 14.62, 138.65 -0.44 M109.45 35.91 C116.84 22.07, 127.6 13.66, 136.31 -0.53 M116.6 31.16 C124.9 23.26, 130.88 9.16, 136.15 5.79 M112.43 34.4 C120.43 26.84, 127.67 14.6, 138.16 3.41 M117.75 33.19 C127.09 25.09, 131.22 18.72, 144.22 13.14 M119.23 34.01 C125.79 26.72, 128.96 19.07, 139.45 7.45 M122.18 33.7 C125.42 25.16, 131.76 19.3, 138.92 13.94 M123.69 36.55 C128.21 30.17, 134.86 23.87, 139.51 14.04 M131.32 33.75 C130.79 33.14, 131.52 26.23, 140.3 21.17 M129.79 34.38 C130.34 30.14, 133.36 28.64, 140.37 21.34 M134.97 33.22 C136.48 31.98, 139.56 27.73, 140.6 26.56 M134.34 34.46 C135.19 32.29, 138.4 30.07, 140.76 28.42" stroke="#ffc9c9" stroke-width="0.5" fill="none"></path><path d="M0.6 -2.12 C55.39 -1.38, 106.23 1.72, 142.51 -3.93 M-0.6 0.38 C45.38 -2.12, 89.88 -0.39, 138.92 -0.67 M142.9 -2.15 C141.97 5.94, 140.7 12.08, 142.06 31.9 M138.06 0.78 C137.32 9.03, 137.85 16.33, 140.56 35.11 M139.17 34.94 C87.64 34.75, 29.56 35.65, 1.6 36.59 M137.52 33.97 C86.27 33.7, 34.68 34.26, -0.6 32.31 M-1.28 32.09 C2.4 21.91, 2.2 16.03, 1.2 -2.02 M-1.92 33.06 C-0.75 21.9, 0.95 11.35, -0.88 -1.79" stroke="#e03131" stroke-width="1" fill="none"></path></g><g transform="translate(448.2745361328126 94.80072200959569) rotate(0 53.8123779296875 6.891782873216698)"><text x="53.8123779296875" y="0" font-family="Cascadia, Segoe UI Emoji" font-size="11.486304788694467px" fill="#e03131" text-anchor="middle" style="white-space: pre;" direction="ltr" dominant-baseline="text-before-edge">cache-proxy-plus</text></g><g stroke-linecap="round"><g transform="translate(380.8654785156251 51.00634765625) rotate(0 21.083465576171875 20.2352294921875)"><path d="M-1.39 0.67 C12.01 12.56, 24.73 25.58, 43.12 39.06" stroke="#e03131" stroke-width="1.5" fill="none" stroke-dasharray="8 9"></path></g><g transform="translate(380.8654785156251 51.00634765625) rotate(0 21.083465576171875 20.2352294921875)"><path d="M18 31.89 C25.96 34.08, 33.17 37.33, 44.08 37.64" stroke="#e03131" stroke-width="1.5" fill="none"></path></g><g transform="translate(380.8654785156251 51.00634765625) rotate(0 21.083465576171875 20.2352294921875)"><path d="M28.59 18.46 C33.35 24.71, 37.38 31.98, 44.08 37.64" stroke="#e03131" stroke-width="1.5" fill="none"></path></g></g><mask></mask><g stroke-linecap="round"><g transform="translate(420.61395263671886 113.43408203125) rotate(0 -20.14239501953125 24.1053466796875)"><path d="M1.06 -0.84 C-12.16 13.22, -21.34 25.03, -40.44 46.87" stroke="#e03131" stroke-width="1.5" fill="none" stroke-dasharray="8 9"></path></g><g transform="translate(420.61395263671886 113.43408203125) rotate(0 -20.14239501953125 24.1053466796875)"><path d="M-30.52 22.66 C-35.06 29.83, -35.54 34.76, -40.6 45.53" stroke="#e03131" stroke-width="1.5" fill="none"></path></g><g transform="translate(420.61395263671886 113.43408203125) rotate(0 -20.14239501953125 24.1053466796875)"><path d="M-17.57 33.82 C-25.69 37.9, -29.76 39.75, -40.6 45.53" stroke="#e03131" stroke-width="1.5" fill="none"></path></g></g><mask></mask><g transform="translate(378.503387451172 97.06529071205273) rotate(359.7911606207079 12.84375 6.5766770613846575)"><text x="12.84375" y="0" font-family="Cascadia, Segoe UI Emoji" font-size="10.96112843564114px" fill="#e03131" text-anchor="middle" style="white-space: pre;" direction="ltr" dominant-baseline="text-before-edge">wrap</text></g><g stroke-linecap="round" transform="translate(28.272688130718166 135.01845642264493) rotate(0 51.99290745462366 18.916415355840172)"><path d="M0 0 C0 0, 0 0, 0 0 M0 0 C0 0, 0 0, 0 0 M-0.01 6.71 C2.28 5.72, 2.73 0.91, 6.37 1.79 M-0.34 6.57 C0.73 4.4, 2.99 3.57, 4.34 0.75 M2.09 9.76 C5.29 9.96, 10.77 -0.65, 9.56 -0.38 M1.73 13.58 C5 8.94, 5.88 5.35, 11.82 0.01 M1.79 22.03 C4.7 16.69, 8.83 12.2, 12.89 1.67 M0.93 17.97 C4.42 14.16, 10.61 8.06, 16.47 0.34 M-3.54 24.5 C10.52 14.03, 15.28 6.91, 23.09 -1.19 M0.75 23.62 C6.19 19.41, 12.98 11.29, 21.84 0.37 M-3.61 28.99 C6.05 23.07, 21.7 9.92, 26.76 3.35 M-1.67 31.35 C8.79 20.18, 15.29 15.39, 26.82 -0.29 M-1.99 35.54 C11.86 30.18, 15.96 19.92, 29.64 1 M0.67 37.24 C11.56 24.98, 19.77 12.51, 32.07 0.65 M-1.03 43.25 C8.39 32.38, 23.05 22.81, 37.7 4.15 M0.71 40.4 C10.76 32.54, 18.09 23.15, 36.79 -0.43 M4.82 38.17 C10.2 29.2, 17.88 25.79, 45.09 1.26 M7.07 40.74 C16.4 30.87, 23.1 23.28, 43.64 0.22 M9.02 39.69 C24.5 24.92, 30.2 15.07, 47.41 2.21 M13.11 41.33 C25.09 24.19, 40.67 9.54, 47.2 1.04 M21.41 40.58 C30.39 33.29, 34.71 22.13, 53.68 3.69 M16.49 38.4 C30.68 26.7, 38.49 14.87, 54.88 0.48 M26.98 43.45 C37.24 24.81, 43.83 14.79, 59.65 2.59 M22.94 41.71 C31.84 31.02, 38.1 23.3, 59.36 0.29 M25.69 38.09 C40.68 25.33, 48.41 16.38, 67.71 1.32 M29.24 41.79 C41.25 24.86, 52.49 10.02, 63.56 -1.15 M33.9 42.83 C43.25 28.82, 50.21 19.18, 68.24 -2.72 M33.61 39.34 C43.8 29.67, 55.26 19.43, 69.03 -1.5 M36.23 41.95 C54.82 28.09, 65.71 11.76, 75.53 -3.87 M38.7 40.47 C52.88 25, 66.89 8.77, 72.93 -1.19 M42.9 43.05 C58.17 26.37, 70.85 7.16, 77.08 1.24 M45.99 42.07 C53.88 30.08, 62.36 17.19, 80.45 -0.09 M49.66 38.37 C60.62 26.66, 68.98 20.89, 85.55 3.02 M50.75 39.05 C61.8 26.76, 73.75 8, 85.72 -0.17 M55.13 38.25 C61.36 31.13, 79.02 14.95, 88.11 0.34 M56.44 41.75 C64.97 31.59, 71.1 20.16, 88.32 1.77 M60.68 40.45 C67.72 29.39, 81.43 18.71, 98.27 -2.16 M61.69 39.16 C73.43 27.03, 85.66 10.84, 94.12 -0.56 M63.83 39.55 C74.74 32.34, 80.63 19.42, 97.34 3.39 M66.75 40.29 C73.49 32.04, 79.74 21.4, 99.81 0.37 M74.07 36.28 C79.22 28.84, 83.16 19.75, 108.91 2.89 M72.35 41.45 C83.48 27.14, 91.84 14.26, 104.47 0.7 M74.29 38.97 C83.86 33.25, 92.56 22.34, 108.95 4.94 M78.22 39.61 C87.88 27.67, 97 17.66, 106.67 7.81 M84.63 40.85 C91.35 32.72, 95 27.37, 106.21 16.93 M81.98 39.63 C89.03 33.87, 92.77 27.28, 106.02 12.26 M83.87 37.49 C89.76 32.43, 96.73 31.31, 103.73 22.93 M85.59 39.67 C89.94 36.83, 94.12 33.08, 103.66 19.7 M89.44 36.28 C98.48 32.39, 96.77 30.01, 107.88 24.14 M94.24 38.48 C95.48 36.87, 97.26 32.82, 104.59 27.07 M95.69 40.53 C100.67 36.61, 102.81 33.26, 105.43 31.95 M98.5 40.23 C100.88 36.79, 103.5 33.15, 105.14 31.08" stroke="#b2f2bb" stroke-width="0.5" fill="none"></path><path d="M-2.09 2.25 C20.93 -4.33, 47.41 -4.43, 102.24 -3.18 M-1.01 1.48 C25.92 -1.37, 48.14 -1.04, 102.72 -1.2 M103.82 2.39 C101.78 16.89, 101.74 31.46, 100.53 41.7 M104.36 -1.28 C102.2 7.27, 102.31 19.54, 104.16 37.95 M103.7 34.54 C64.99 37.27, 36.93 39.68, -2.61 40 M105.31 37.14 C67.84 40.32, 33.25 40.9, -0.76 38.6 M-1.48 41.52 C-2.76 23.62, -2.58 13.24, -3.57 1.49 M1.57 38.89 C1.73 27.98, -1.01 20.85, 0.47 -0.72" stroke="#2f9e44" stroke-width="1" fill="none"></path></g><g transform="translate(36.73336902284183 147.07340717995714) rotate(0 43.5322265625 6.861464598528016)"><text x="43.5322265625" y="0" font-family="Cascadia, Segoe UI Emoji" font-size="11.435774330880038px" fill="#2f9e44" text-anchor="middle" style="white-space: pre;" direction="ltr" dominant-baseline="text-before-edge">function call</text></g><g stroke-linecap="round" transform="translate(202.2082519531251 222.33627319335938) rotate(0 90.2144775390625 25)"><path d="M-0.25 26.28 C-0.25 26.28, -0.25 26.28, -0.25 26.28 M-0.25 26.28 C-0.25 26.28, -0.25 26.28, -0.25 26.28 M3.7 26.91 C4.93 25.76, 5.67 25.32, 6.97 24.43 M4.55 27.34 C5.18 26.4, 5.76 25.6, 7.67 24.01 M6.77 27.92 C11.51 27.03, 10.04 24.05, 13.49 20.76 M7.66 28.29 C10.22 25.7, 12.73 25.14, 14.35 22.21 M11.53 27.31 C14.47 26.52, 17.41 21.7, 23.3 20.43 M13.61 29 C15.74 28.11, 17.07 24.95, 20 19.08 M16.51 31.52 C23.58 25.79, 26.68 22.72, 25.79 16.9 M17.88 31.33 C19.96 27.9, 22.53 26.18, 27.73 19.59 M18.76 30.29 C26.71 30.76, 30.36 25.87, 32.69 12.94 M22.27 33.26 C25.89 27.36, 31.52 17.82, 36.47 15.92 M23.81 36.3 C32.9 30.71, 30.89 23.23, 43.82 17.29 M23.88 32.94 C31.72 25.75, 37.83 20.49, 41.43 15.98 M32.61 35.5 C32.9 31.14, 39.53 19.86, 50.95 11.48 M30.94 32.46 C33.37 30.8, 38.83 22.95, 48.38 12.25 M31.94 36.46 C40.85 21.84, 53.81 15.09, 60.29 5.61 M34.26 36.3 C43.04 27.39, 46.33 21.83, 55.72 8.5 M36.96 37.99 C49.27 29.4, 51.41 19.38, 64.11 4.65 M37.04 36.78 C48.27 23.78, 58.35 15.57, 63.48 6.36 M41.84 40.43 C52.56 25.77, 61.3 15.11, 71.26 3.2 M42.57 37.33 C54.53 25.78, 62.32 14.27, 70.95 6.15 M46.38 37.04 C57.37 31.76, 65.25 19.45, 79.21 -0.06 M47.95 37.82 C53.24 29.78, 62.66 20.26, 77.72 5.2 M54.63 41.41 C63.29 32.79, 71.01 19.6, 85.29 4.24 M51.7 37.86 C58.88 29.28, 67.2 24.23, 86.03 2.4 M53.51 38.81 C68.55 31, 71.28 22.83, 93.34 -0.5 M55.52 42.15 C69.38 26.26, 82.43 11.99, 92.47 1.51 M59.46 45.58 C67.13 30.45, 80.81 18.17, 97.7 1.62 M59.97 43.75 C72.81 25.75, 84.84 11.28, 95.03 -0.48 M65.04 44.45 C72.51 33.6, 77.3 23.77, 97.07 5.97 M66.1 41.41 C74.58 33.31, 81.02 25.4, 100.01 1.62 M69.57 44.02 C80.3 29.75, 88.53 21.37, 99.85 0.91 M67.21 42.9 C83.44 29.66, 95.45 12.36, 102.46 4.56 M73.75 46.02 C78.54 39.78, 90.07 30.09, 105.5 4.59 M74.48 46.27 C86.88 30.89, 97.62 17.5, 108.56 5.51 M78.26 48.77 C87.64 32.98, 101.44 15.05, 109.75 5.35 M76.7 47.24 C85.09 37.59, 93.46 28.8, 111.92 8.31 M78.45 46.52 C89.03 42.94, 96.55 32.12, 118.59 5.84 M81.92 48.42 C88.77 37.46, 94.35 31.15, 116.6 7.55 M86.88 48.81 C93.91 31.17, 107.87 20.16, 118.88 6.38 M85.19 46.72 C94.39 40.91, 102.15 29.32, 122.84 9.88 M88.03 47.89 C100.08 39.27, 109.98 22.05, 124.34 9.12 M90.17 50.59 C104.19 34.08, 116.34 20.68, 126.06 10.09 M94.17 52.54 C107.96 38.66, 114.59 26.59, 132.78 14.37 M98.21 49.84 C106.77 37.83, 117.93 28.81, 129.16 13.39 M105.38 50.48 C116.54 35.4, 125.46 22.69, 136.8 12.52 M103.36 47.99 C111.98 36.25, 119.93 28.18, 134.32 11.26 M108.22 43.77 C116.59 37.46, 126.41 28.06, 137.03 12.39 M112.07 45.58 C122.62 36.09, 130.84 23.01, 139.24 15.75 M120.89 45.13 C125.09 31.33, 131.07 22.34, 140.11 13.34 M115.54 42.45 C121.92 35.01, 131.8 27.19, 140.25 15.52 M126.64 42.83 C129.19 36.05, 136.3 30.09, 145.3 12.69 M124.01 42.54 C132.83 35.36, 138.33 26.69, 145.93 17.17 M132.33 40.09 C138.34 31.16, 144.27 25.09, 151.13 17.04 M132.54 39.28 C135.85 33.66, 140.48 28.09, 148.86 16.56 M135.05 34.43 C146.53 33.16, 148.87 25.62, 157.33 18.47 M136.64 38.8 C143.27 32.05, 150.93 23.96, 154.57 20.86 M148.82 33.06 C147.93 33.38, 157.88 25.37, 158.11 18.8 M145.98 37.34 C150.16 30.23, 155.38 24.83, 159.96 20.88 M154.64 32.51 C156.9 31.81, 157.77 26.58, 164.6 18.14 M152.05 32.72 C153.7 32.28, 159.23 27.71, 162.96 20.9 M160.65 32.49 C162.04 27.31, 164.55 25.55, 167.4 21.11 M158.28 32.39 C160.86 28.67, 163.82 27.02, 168.33 22.6 M167.09 28.73 C167.28 29.16, 167.28 24.97, 173.58 23.32 M165.87 30.91 C167.76 28.01, 168.29 26.73, 171.56 23.88 M172.6 28.89 C173.89 26.7, 173.24 26.12, 176.91 24.19 M172.37 28.19 C173.78 27.13, 174.56 25.95, 176.13 24.11 M179.81 26.45 C179.81 26.45, 179.81 26.45, 179.81 26.45 M179.81 26.45 C179.81 26.45, 179.81 26.45, 179.81 26.45" stroke="#a5d8ff" stroke-width="0.5" fill="none"></path><path d="M89.17 1 C116.39 11.69, 147.98 14.82, 182.37 22.01 M92.46 0.63 C112.68 4.12, 132.15 10.27, 181.1 25.33 M181.53 24.2 C153.25 36.22, 127.09 38.87, 88.33 51.65 M181.62 25.54 C146.73 36.6, 114.93 44.46, 90.08 49.04 M92.98 52 C59.86 41.36, 32.63 29.54, -2.12 26.2 M91.91 48.44 C62.56 39.12, 34.75 31.12, -0.29 24.16 M2.1 23.92 C32.06 19.5, 60.88 8.05, 89.63 3.32 M-1.08 26.43 C20.58 20.86, 39.43 15.66, 92.12 0.03" stroke="#1971c2" stroke-width="1" fill="none"></path></g><g transform="translate(256.74908447265636 240.04738430447048) rotate(0 35.56640625 7.288888888888891)"><text x="35.56640625" y="0" font-family="Cascadia, Segoe UI Emoji" font-size="12.14814814814815px" fill="#1971c2" text-anchor="middle" style="white-space: pre;" direction="ltr" dominant-baseline="text-before-edge">LocalCache</text></g><g stroke-linecap="round"><g transform="translate(135.5276794433595 152.530464287953) rotate(0 32.16603088378906 0.7313933371277699)"><path d="M2.05 -0.82 C14.55 2.99, 29.95 3.94, 67.1 0.14 M0.38 0.6 C22.64 0.11, 42.3 1.41, 63.32 3.13" stroke="#2f9e44" stroke-width="1" fill="none"></path></g><g transform="translate(135.5276794433595 152.530464287953) rotate(0 32.16603088378906 0.7313933371277699)"><path d="M40.28 9.49 C44.82 9.87, 50.73 8.69, 64.7 2.47 M39.44 10.2 C47.83 7.23, 54.94 5.36, 62.81 3.97" stroke="#2f9e44" stroke-width="1" fill="none"></path></g><g transform="translate(135.5276794433595 152.530464287953) rotate(0 32.16603088378906 0.7313933371277699)"><path d="M41.56 -7.56 C45.66 -3.43, 51.3 -0.85, 64.7 2.47 M40.72 -6.85 C48.7 -4.08, 55.38 -0.22, 62.81 3.97" stroke="#2f9e44" stroke-width="1" fill="none"></path></g></g><mask></mask><g stroke-linecap="round"><g transform="translate(286.47967529296886 174.6488037109375) rotate(0 1.882110595703125 21.680953979492188)"><path d="M-0.11 0.83 C2.75 11.6, 3.03 26.94, 5.11 42.1 M0.81 -0.58 C1.5 13.52, 2.19 27.36, 4.45 44.24" stroke="#2f9e44" stroke-width="1" fill="none"></path></g><g transform="translate(286.47967529296886 174.6488037109375) rotate(0 1.882110595703125 21.680953979492188)"><path d="M-5.38 25.6 C-0.44 28.93, 1.69 36.85, 5.79 42.98 M-4.46 24.19 C-1.73 30.7, 0.84 37, 5.14 45.12" stroke="#2f9e44" stroke-width="1" fill="none"></path></g><g transform="translate(286.47967529296886 174.6488037109375) rotate(0 1.882110595703125 21.680953979492188)"><path d="M9.41 23.91 C9.75 27.84, 7.28 36.29, 5.79 42.98 M10.33 22.5 C8.37 29.64, 6.27 36.47, 5.14 45.12" stroke="#2f9e44" stroke-width="1" fill="none"></path></g></g><mask></mask><g stroke-linecap="round" transform="translate(201.79229736328136 333.739990234375) rotate(0 90.2144775390625 25)"><path d="M-0.25 26.28 C-0.25 26.28, -0.25 26.28, -0.25 26.28 M-0.25 26.28 C-0.25 26.28, -0.25 26.28, -0.25 26.28 M4.94 27.46 C4.94 25.36, 6.54 25.44, 6.79 24.58 M3.79 27.67 C5.16 26.81, 5.13 25.57, 7.71 24 M8.29 28.91 C12.15 26.76, 15.03 23.74, 14.75 21.05 M9.26 27.83 C11.13 25.75, 12.84 23.47, 14.65 21.52 M11.82 30.37 C17.49 24.02, 17.81 24.56, 23.59 19.49 M13.88 30.78 C15.6 26.24, 16.62 25.03, 20.82 20.94 M15.24 30.65 C24.27 24.76, 28.2 17.96, 29.25 21.13 M18.26 31.06 C19.51 27.46, 21.14 25.6, 26.8 17.66 M22.52 28.59 C29.09 21.78, 34.64 21.36, 32.77 12.81 M21.24 30.78 C25.59 26.73, 26.83 22.49, 34.1 17.56 M22.76 35.67 C28.69 24.74, 39.55 21.8, 46.03 13.08 M25.24 31.91 C28.43 29.04, 33.68 24, 41.52 13.56 M28.71 32.87 C34.59 32.5, 39.55 24.42, 51.19 8.54 M29.54 32.64 C38.24 25.42, 45.97 18.73, 47.62 11.55 M33.25 37.84 C41.83 24.27, 52.9 17.23, 57.07 12.75 M33.26 33.38 C37.47 30, 44.59 26.38, 57.67 10.22 M40.46 39.46 C42.76 29.6, 48.62 18.19, 60.06 8.38 M36.81 36.5 C47.9 23.52, 59.57 15.23, 64.1 9.64 M44.94 40.52 C54.49 30.08, 62.09 18.22, 71.48 5.38 M41.23 36.03 C53.8 26.47, 63.6 12, 71.74 6.46 M47.27 40.28 C57.25 28.75, 57.29 21.82, 78.28 6.54 M45.49 37.33 C52.35 29.31, 61.12 23.88, 78.55 2.65 M49.3 37.16 C62.03 25.15, 77.56 10.95, 83.1 5.45 M49.83 38.81 C61.93 27.64, 74.45 15.32, 85.5 0.35 M53.59 43.32 C66.64 27.06, 76.64 11.29, 91.66 -2.97 M57.05 39.57 C64.43 32.03, 71.79 22.82, 91.99 -0.37 M58.73 39.29 C73.49 27.38, 90.98 9.4, 93.45 3.26 M59.83 41.14 C72.36 27.81, 82.46 17.83, 94.45 1.17 M66.78 44.62 C74.53 32.91, 81.94 19.78, 96.4 3.46 M66.01 43.12 C73.71 32.53, 84.62 21.05, 100.92 3.64 M70.59 40.47 C78.87 33.8, 88.11 26.28, 104.93 2.94 M69.97 44.91 C83.76 29.14, 93.86 16.45, 103.1 5.44 M77.18 48.28 C84.57 28.15, 93.4 21.02, 106.09 5.17 M73.9 45.36 C84.09 33.53, 93.29 22.06, 106.33 3.87 M79.15 44.34 C88.97 32.69, 106.62 15.24, 111.48 7.37 M79.08 44.48 C90.52 34.42, 101.09 19.53, 113.58 7.84 M86.03 46.47 C96.94 32.38, 107.21 18.47, 120.05 3.87 M83.28 47.13 C90.23 37.61, 95.12 29.19, 116.03 8.28 M87.64 44.61 C94.83 32.27, 106.58 19.89, 117.39 8.79 M87.98 48.69 C101.61 34.55, 115.42 17.31, 122.45 9.83 M93.52 47.43 C103.04 34.85, 115.23 27.17, 126.53 11.33 M91.76 50.75 C97.76 41.48, 106.44 29.96, 125.83 9.3 M94.91 54.53 C107.34 35.03, 113.6 21.48, 129.88 11.49 M92.23 52.34 C101.57 41.84, 114.49 29.03, 127.32 12.31 M104.08 53.94 C113.47 40.02, 122.85 26.99, 132.69 11.12 M99.28 48.5 C109.61 39.62, 120.5 27.7, 131.59 11.55 M109.92 50.89 C113.25 37.23, 124.95 33.38, 141.07 17.58 M106.6 50.14 C115.27 41.13, 120.19 32.66, 138.79 15.41 M114.42 43.34 C123.25 39.93, 125.8 28.11, 140.66 15.11 M114.13 48.6 C121.48 38.63, 132.69 28.8, 143.19 14.41 M124.15 45.12 C127.59 35.78, 135.88 33.53, 144.06 19.47 M123.45 45.88 C129.45 36.53, 135.22 30.45, 146.51 16.96 M125.6 44.57 C133.02 33.23, 142.81 28.82, 154.16 16.53 M127.07 42.3 C133.55 38.99, 139.65 31.8, 149.22 18.96 M136.57 39.16 C140.8 36.42, 146.08 29.58, 154.89 17.66 M135.75 42.25 C143.3 32.06, 149.89 26.6, 155.19 20.29 M141.55 42.12 C146.47 32.4, 155.82 26.51, 157.19 19.37 M143.82 37.8 C149.16 31.74, 154.18 24.02, 157.65 19.49 M150.43 37.79 C155.19 36.59, 154.06 24.67, 162.49 22.43 M147.83 39.19 C153.98 31.08, 157.08 27.84, 164.52 21.93 M152.82 33.55 C158.35 31.77, 160 26.13, 168.55 23.35 M154.6 35.55 C158.36 29.37, 163.81 27.83, 168.33 22.5 M163.51 33.71 C166.07 30.07, 169.16 25.89, 169.69 22.71 M163.6 33.2 C166.98 29.44, 170.71 26.98, 171.42 22.53 M167.58 30.64 C171.55 30.85, 173.33 28.73, 177.3 24.77 M169.86 31.58 C172.09 29.38, 174.82 25.74, 175.85 24.93 M176.92 30.52 C176.92 29.11, 179.34 27.55, 179.51 26.39 M176.07 30.18 C177.38 29.07, 178.71 27.31, 180.15 25.99" stroke="#a5d8ff" stroke-width="0.5" fill="none"></path><path d="M90.22 1.89 C115.34 10.68, 142.89 12.84, 180.65 23.93 M91.59 -0.96 C110.8 4.15, 126.82 11.74, 179.02 25.93 M183.32 25.36 C152.9 33.04, 127.3 36.97, 90.99 47.75 M178.72 26.16 C150.44 33.27, 119.35 40.95, 91.22 51.82 M88.21 51.01 C64.77 44.39, 30.91 32.38, 3.68 27.3 M92.1 50.28 C68.43 41.37, 46.6 37.44, 0.12 26.99 M3.89 24.93 C29.15 22.07, 52.2 10.2, 89.17 -1.41 M-0.74 27.74 C24.5 17.35, 52.96 12.16, 90.31 0.97" stroke="#1971c2" stroke-width="1" fill="none"></path></g><g transform="translate(252.7764892578126 351.4511013454861) rotate(0 39.123046875 7.288888888888891)"><text x="39.123046875" y="0" font-family="Cascadia, Segoe UI Emoji" font-size="12.14814814814815px" fill="#1971c2" text-anchor="middle" style="white-space: pre;" direction="ltr" dominant-baseline="text-before-edge">RemoteCache</text></g><g stroke-linecap="round" transform="translate(188.2813720703126 442.98236083984375) rotate(0 103.3507385253906 25)"><path d="M-0.25 26.28 C-0.25 26.28, -0.25 26.28, -0.25 26.28 M-0.25 26.28 C-0.25 26.28, -0.25 26.28, -0.25 26.28 M4.78 26.83 C5.94 26.03, 5.94 25.55, 6.25 23.83 M4.65 26.36 C5.66 25.73, 6.28 25.18, 6.65 24.17 M7.68 26.44 C11.67 24.97, 12.6 23.53, 13.29 23.07 M9.2 27.49 C10.8 25.39, 11.58 24.72, 13.1 22.6 M13.84 30.71 C14.64 25.6, 18.89 23.88, 18.87 22.12 M14.23 29 C15.98 26.35, 19.7 23.15, 20.46 20.16 M16.56 30.88 C20.12 27.9, 22.61 18.62, 25.28 20.89 M16.7 29.06 C19.78 25.55, 24.99 22.58, 26.14 18.85 M18.72 28.74 C23.35 23.41, 30.35 25.22, 30.45 14.69 M22.69 32.68 C25.38 26.97, 32.16 20.73, 32.09 17.09 M23.4 35.09 C33.25 27.7, 38.15 17.01, 38.24 14.37 M26.96 31.82 C29.35 27.56, 35.25 21.53, 42.51 13.95 M26.79 29.66 C32.39 27.66, 41.26 20.46, 50.31 15.58 M32.41 33.94 C35.27 27.56, 38.87 24.83, 45.73 16.26 M35.99 37.42 C40.65 24.95, 47.76 17.29, 56.95 10.88 M35.28 35.17 C39.46 27.58, 43.11 23.64, 55.44 11.99 M37.62 36.9 C50.01 29.62, 58.54 14.86, 61 11.86 M40.75 33.6 C45.03 29.63, 51.69 21.29, 61.09 12.12 M45.46 34.36 C48.43 26.14, 59 19.71, 70.73 9.14 M46.07 37.74 C51.86 29.68, 56.44 20.46, 69.99 6.86 M47 38.57 C61.72 23.89, 70.78 14.59, 77.11 5.3 M48.16 37.36 C59.77 25.07, 69.54 13.48, 75.7 8.52 M51.48 39.25 C61 34.4, 64.97 19.93, 79.09 7.19 M54.7 39.8 C59.44 29.11, 67.92 21.48, 80.36 3.74 M57.13 41.68 C65.33 27.87, 76.55 17.94, 90.27 5.89 M56.45 40.52 C67.94 28.4, 77.59 17.68, 88.4 3.4 M61.8 42.08 C71.22 28.55, 78.63 21.61, 91.52 1.76 M60.96 40.42 C72.44 24.99, 85.82 11.84, 96.23 3.6 M69.61 38.97 C74.57 26.39, 91.54 12.91, 99.55 1.58 M64.25 41.17 C74.44 32.15, 84.31 19.4, 99.87 0.75 M69.56 40.54 C75.64 34.74, 87.97 26.06, 103.64 4.75 M68.47 42.46 C80.8 34.18, 88.08 23.89, 104.74 1.68 M74.78 43.32 C85.69 26.37, 97.88 18.61, 108.13 1.53 M74.3 44.66 C89.95 26.92, 100.7 13.38, 111.26 3.85 M82.6 42.51 C91.35 38.35, 94.84 30.78, 118.46 5.78 M79.96 45.05 C90.41 29.98, 104.13 18.31, 113.87 4.02 M85.05 46.86 C96 30.77, 107.54 20.35, 119.8 6.28 M84.86 44.66 C90.69 38.47, 97.07 26.75, 118.79 3.47 M84.89 49.06 C93.58 37.83, 102.88 27, 124.31 9.36 M88.67 44.59 C100.41 30.49, 114.3 14.39, 124.31 6.64 M94.87 44.36 C101.05 39.65, 113.01 27.49, 125.79 6.32 M91.63 48.58 C101.79 39.1, 108.09 29.08, 126.51 6.41 M100.4 45.94 C104.59 38.07, 118.52 25.02, 130.28 8.72 M96.27 48.29 C107.35 38.25, 117.17 26.52, 130.93 7.39 M98.1 48.3 C111.2 45.19, 115.01 30.31, 134.73 7.84 M103.09 50.64 C112.81 38.45, 120.64 26.7, 138.27 7.27 M107.17 49.84 C120.43 39.88, 131.47 22.25, 141.56 10.01 M104.89 50.36 C118.17 34.34, 130.56 20.34, 140.07 8.12 M111.28 49.05 C118.92 35.01, 127.45 24.52, 145.33 11.98 M113.84 50.06 C124.43 35.91, 136.49 23.54, 144.41 9.7 M115.94 45.35 C128.73 35.57, 134.54 27.2, 147.36 12.32 M117.79 47.04 C129.42 34.26, 139.08 22.32, 151.56 12.74 M123.74 49.73 C134.2 30.51, 145.2 20.55, 150.35 10.79 M124.67 43.86 C135.14 36.05, 145.36 26.36, 155.72 12.34 M132.28 40.33 C137.35 32.93, 143 29.06, 156.99 11.7 M131.44 45.88 C144.08 34.66, 153 22.14, 156.67 13.18 M136.2 43.13 C148.19 32.8, 147.19 30.08, 164.62 15.28 M139.18 41.86 C146.4 31.05, 156.56 24.38, 161.48 14.9 M147.77 41.02 C155.29 37.02, 155.3 25.39, 164.46 12.35 M144.74 38.97 C151.1 32.45, 160.79 22.78, 168.82 14.63 M149.47 38.97 C157.53 34.36, 162.45 33.42, 173.67 18.64 M154.42 39.9 C156.55 34.56, 160.79 28.45, 172.06 15.34 M156.04 36.62 C163.11 28.19, 169.6 24, 173.87 17.7 M161.04 37.4 C166.37 28.85, 172.23 24.39, 174.9 16.6 M162.36 33.67 C169.32 29.42, 179.65 24.7, 183.16 19.26 M164.9 35.59 C169.9 30.16, 176.08 24.73, 182.38 18.93 M172.79 35.23 C173.49 27.85, 182.21 28.35, 183.45 21.78 M174.11 33.37 C173.97 31.94, 178.58 29.68, 185.26 22.26 M180.72 33.2 C182.66 30.39, 187.09 25.53, 187.4 20.52 M178.34 33.21 C182.17 30.14, 183.72 26.78, 189.65 20.16 M184.63 29.47 C187.23 29.36, 186.67 29.58, 194.18 23.8 M186.22 30.58 C189.2 29.42, 191.9 23.81, 193.33 23.43 M192.49 31.06 C193.62 28.17, 195.54 25.6, 198.62 22.33 M192.6 29.7 C193.59 27.92, 195.53 26.51, 197.75 24.45 M198.55 27.69 C199.99 28.15, 199.8 26.65, 201.99 25.3 M198.98 28.29 C199.86 27.9, 200.9 27.43, 202.02 24.52" stroke="#a5d8ff" stroke-width="0.5" fill="none"></path><path d="M107.14 -2.62 C135 5.15, 172.52 18.99, 203.74 25.21 M102 -1.17 C137.94 11.22, 173.45 17.52, 208.17 26.76 M205.05 24.96 C187 28.48, 162.91 38.07, 105.86 51.27 M205.78 26.68 C181.44 32.41, 157.14 35.25, 104.37 51.76 M104.02 49.28 C71.48 40.53, 41.36 33.76, -2.3 28.23 M104.24 51.08 C72.42 43.49, 43.57 34.34, 1.93 27.25 M-0.42 27.4 C31.04 19.99, 53.45 15.58, 104.62 -1.59 M0.47 25.06 C34.76 19.91, 69.26 9.2, 102.97 1.99" stroke="#1971c2" stroke-width="1" fill="none"></path></g><g transform="translate(245.22041320800793 460.69347195095486) rotate(0 46.236328125 7.288888888888891)"><text x="46.236328125" y="0" font-family="Cascadia, Segoe UI Emoji" font-size="12.14814814814815px" fill="#1971c2" text-anchor="middle" style="white-space: pre;" direction="ltr" dominant-baseline="text-before-edge">FallbackCache</text></g><g stroke-linecap="round" transform="translate(191.43716430664074 553.7512817382812) rotate(0 103.3507385253906 25)"><path d="M-0.25 26.28 C-0.25 26.28, -0.25 26.28, -0.25 26.28 M-0.25 26.28 C-0.25 26.28, -0.25 26.28, -0.25 26.28 M4.54 27.06 C5.72 25.54, 6.25 24.74, 6.52 24.38 M5.02 26.4 C5.06 26.03, 5.34 25.62, 6.63 24.19 M10.33 28.96 C10.02 26.78, 10.77 24.84, 14.87 21.43 M9.77 27.07 C9.62 26.17, 11.01 25.88, 13.89 22.9 M15.48 27.34 C15.13 24.6, 18.05 23.33, 21.5 22.39 M13.62 28.93 C15.67 25.99, 16.57 25.32, 20.76 20.11 M19.13 32.22 C18.96 24.34, 24.63 23.67, 28.65 19.72 M17.71 30.54 C21.46 25.67, 25.59 21.98, 27.09 18.49 M24.88 28.2 C26.13 27.23, 29.87 20.74, 34.86 18.16 M21.28 30.19 C23.11 28, 26.85 23.51, 35.06 17.87 M23.21 33.45 C27.38 27.31, 39.93 20.29, 37.72 14.33 M25.92 31.83 C32.96 24.67, 37.49 18.47, 41.37 16.33 M30.77 32.34 C33.78 26, 36.69 24.52, 47.4 12.99 M30.4 32.23 C35.5 26.43, 44.28 17.4, 46.23 13.7 M34.9 33.53 C39.04 27.34, 49.01 22.53, 57.37 9.71 M33.76 34.14 C40.39 30.37, 43.01 25.07, 54.03 12.48 M43.88 31.21 C46.15 25.34, 50.3 18.88, 63.27 14.6 M38.06 35.6 C48.13 24.08, 54.61 18.06, 60.54 9.18 M43.31 35.13 C48.87 29.59, 54.1 20.31, 68.28 8.67 M45.37 36.16 C50.34 27.75, 57.43 18.81, 69.32 8.62 M50.6 33.45 C55.13 26.49, 66.15 23.2, 72.44 4.74 M47.37 37.68 C56.3 28.85, 66.33 17.09, 74.13 8.74 M55.04 39.17 C59.63 28.12, 67.15 19.43, 77.86 3.83 M54.43 38.64 C62.78 26.66, 73.54 14.38, 83.24 6.91 M61.04 40.69 C67.32 23.56, 84.52 10.66, 91.46 3 M57.93 38.72 C63.99 32.77, 69.67 25.75, 87.15 3.76 M62.74 37.24 C71.08 31.68, 81.07 25.37, 97.51 0.52 M62.01 42.1 C70.44 29.49, 78.36 22.04, 94.27 2.24 M62.7 38.23 C75.65 28.14, 90.31 15.96, 98.3 -3.08 M65.17 42.76 C75.1 34.64, 79.18 24.64, 100.56 0.67 M70.45 42.63 C82.24 26.49, 91.93 16.29, 102.76 1.24 M72.03 43.83 C78.7 31.9, 91.47 19.21, 105.34 0.83 M73.82 45.58 C80.02 32.69, 89.64 22, 109.04 1.25 M75.64 42.12 C85.17 29.61, 98.81 17.92, 110.82 2.21 M82.93 44.8 C90.86 28.66, 98.52 21.72, 118.51 0.2 M78.53 42.43 C93.71 29.15, 106.38 15.49, 115.23 4.65 M80.73 43.43 C93.42 29.55, 107.77 21.48, 118.38 4.12 M82.37 46.39 C95.96 32.08, 103.14 21.38, 120.45 3.6 M91.04 48.42 C97.21 35.73, 110.11 19.23, 125 4.5 M89.02 46.76 C97.86 36.11, 107.58 25.71, 122.43 6.7 M93.78 45.15 C102.57 29.03, 115.87 14.41, 126.46 5.62 M90.86 47.97 C102.47 37.33, 112.5 25.39, 126.79 5.1 M95.66 48.83 C108.23 34.87, 112.36 30.85, 133.24 7.96 M98.49 49.47 C107.4 38.6, 115.23 27.91, 130.6 6.76 M100.74 47.83 C110.81 36.58, 119.24 35.07, 136.82 11.54 M102.41 51.01 C113.84 34.86, 125.11 23.63, 137.99 7.77 M109.75 46.32 C117.17 36.03, 131.18 22.35, 144.31 7.33 M105.38 51.23 C114.64 42.64, 123.96 31.5, 141.89 9.65 M114.05 48.43 C125.74 31.83, 135.88 23.5, 145.07 12.6 M111.41 49.69 C124.43 34.99, 134.72 20.64, 143.68 10.69 M116.94 47.08 C131.55 35.06, 146.79 24, 153.35 14.3 M120.21 47.73 C130.22 36.1, 137.93 27.64, 150.91 11.22 M128.94 46.65 C134.12 40.08, 139.31 34.75, 150.88 12.45 M125.44 44.99 C137.14 34.56, 147.49 19.21, 152.96 12.98 M129.71 46.55 C139.35 40.84, 145.93 27.25, 161.55 11.5 M133.76 42.98 C139.97 35.37, 149.35 24.32, 158.74 16.36 M138.06 45.88 C145.93 34.24, 153.99 22.02, 161.98 15.71 M137.89 43.66 C147.83 31.4, 158.73 23.06, 164.39 15.78 M148.55 44.57 C150.45 33.33, 158.04 28.79, 164.83 19.75 M146.24 42.51 C150.53 36.08, 154.99 28.06, 167.58 16.21 M152.1 40.45 C155.16 31.89, 162.87 29.51, 174.81 15.13 M154.62 39.52 C157.76 31.92, 164.2 25.1, 172.65 15.52 M162.01 37.93 C160.43 32.41, 168.59 24.67, 179.21 17.04 M161.29 35.87 C165.78 32.7, 170.63 26.32, 176.15 17.24 M165.8 33.35 C168.29 28.53, 174.16 31.11, 183.93 22.72 M165.93 37.12 C172.36 29.7, 177.39 23.79, 179.95 20.91 M174.57 32.48 C177.56 29.13, 177.74 27.6, 184.75 18.19 M172.07 34.65 C176.74 32.2, 180.05 26.88, 185.55 18.74 M182.36 34.67 C182.47 32.26, 187.89 29.09, 189.78 21.21 M178.33 32.83 C183.97 29.78, 186.63 23.09, 189.77 22.22 M186.67 30.98 C186.18 26.74, 188.75 26.05, 192 24.19 M186.59 30.95 C187.58 28.83, 190.7 25.54, 194.37 21.94 M191.99 29.02 C195.03 27.59, 194.35 26.18, 199.12 24.92 M192.16 29.08 C193.77 27.85, 195.82 25.6, 198.4 24.42 M199.42 28.48 C200.02 27.95, 200.33 26.51, 202.05 24.61 M199.45 28.72 C200.49 26.95, 201.93 25.85, 202.61 25.09" stroke="#a5d8ff" stroke-width="0.5" fill="none"></path><path d="M103.85 1.86 C125.12 5.34, 151.84 10.94, 203.32 25.98 M103.53 1.32 C143.16 10.82, 183.31 17.43, 206.07 25.31 M203.04 22.69 C182.76 27.67, 162.63 37.53, 104.47 53.07 M208.22 25.8 C166.96 32.9, 126.95 42.42, 102.22 50.7 M104.89 47.16 C74.06 49.11, 53 41.53, 2.43 25.62 M104.58 48.03 C80.38 44.41, 61.43 37.21, -1.96 26.41 M2.17 28.72 C34.9 15.8, 70.26 3.88, 106.67 1.54 M-0.13 24.57 C25.63 21.13, 51.35 15.84, 103.34 -1.85" stroke="#1971c2" stroke-width="1" fill="none"></path></g><g transform="translate(262.60276794433605 571.4623928493924) rotate(0 32.009765625 7.288888888888891)"><text x="32.009765625" y="0" font-family="Cascadia, Segoe UI Emoji" font-size="12.14814814814815px" fill="#1971c2" text-anchor="middle" style="white-space: pre;" direction="ltr" dominant-baseline="text-before-edge">real call</text></g><g stroke-linecap="round" transform="translate(190.48403930664074 666.8483276367188) rotate(0 103.3507385253906 25)"><path d="M-0.25 26.28 C-0.25 26.28, -0.25 26.28, -0.25 26.28 M-0.25 26.28 C-0.25 26.28, -0.25 26.28, -0.25 26.28 M5.32 26.11 C5.31 25.62, 5.61 25.02, 7.04 24.97 M4.44 26.76 C5.53 25.53, 6.08 25.11, 6.63 24.16 M8.7 27.48 C9.64 26.65, 10.51 24.5, 13.77 22.45 M9.42 27.84 C10.02 26.11, 11.42 24.23, 14.13 22.43 M14.44 26.9 C15 25.3, 19.2 25.63, 19.6 19 M12.67 29.23 C15.4 26.76, 18.77 22.76, 20.53 21.2 M19.14 30.7 C19.73 26.09, 22.16 23.27, 24.55 18.11 M18.71 30.33 C20.81 26.33, 24.42 22.25, 28.31 20.27 M25.37 32.38 C25.04 23.92, 34.25 19.51, 36.8 16.81 M22.57 30.61 C24.74 28.64, 26.64 26.03, 32.93 17.48 M27.44 29.08 C30.72 28.55, 36.07 27.58, 43.84 13.49 M26.71 33.93 C30.03 26.63, 33.07 24.79, 40.59 15.21 M27.4 30.07 C34.4 26.39, 43.33 20.79, 43.97 10.65 M29.87 34.6 C35.9 31.2, 35.78 26.02, 46.23 14.39 M35.15 34.46 C41.76 24.47, 45.89 20.66, 50.4 12.7 M36.73 35.67 C38.55 29.41, 46.41 22.37, 52.98 12.28 M38.52 37.41 C41.55 28.1, 47.83 21.25, 59.3 9.69 M40.33 33.95 C45.23 26.99, 54.29 20.57, 61.09 10.65 M47.63 36.63 C51.84 24.7, 55.69 22.16, 71.4 5.62 M43.22 34.27 C54.23 25.97, 62.75 17.09, 68.12 10.07 M45.43 35.26 C55.14 24.78, 66.59 20.03, 73.24 7.28 M47.07 38.23 C57.89 27.25, 62.19 19.86, 75.31 6.76 M55.74 40.25 C59.79 29.99, 70.49 16.01, 82.48 4.64 M53.72 38.6 C60.74 30.31, 68.53 22.14, 79.91 6.84 M58.48 36.99 C65.61 22.83, 77.21 10.17, 86.56 2.74 M55.56 39.81 C65.86 30.7, 74.52 20.34, 86.89 2.22 M60.36 40.67 C72.31 27.44, 75.8 24.18, 95.31 2.81 M63.19 41.31 C71.39 31.25, 78.54 21.34, 92.67 1.62 M65.44 39.66 C75.51 28.42, 83.94 26.9, 101.52 3.38 M67.11 42.85 C78.54 26.69, 89.81 15.46, 102.69 -0.39 M73.79 38.91 C81.68 28.09, 96.17 13.87, 109.66 -1.59 M69.42 43.82 C79.01 34.88, 88.63 23.39, 107.24 0.73 M76.78 42.53 C89.38 24.83, 100.49 15.4, 110.42 3.68 M74.14 43.79 C88.09 27.97, 99.34 12.51, 109.03 1.77 M77.04 44.2 C93.73 29.89, 110.97 16.54, 118.7 5.38 M80.31 44.85 C91.92 31.41, 101.23 21.09, 116.26 2.31 M87.08 46.03 C93.7 37.72, 100.47 30.57, 116.23 3.54 M83.58 44.37 C97.94 30.63, 111.11 12.04, 118.31 4.06 M85.23 48.95 C97.18 40.53, 106.18 24.15, 126.9 2.59 M89.28 45.38 C98.65 34.16, 111.06 19.62, 124.09 7.44 M90.95 51.3 C103.22 34.8, 115.67 17.53, 127.33 6.79 M90.78 49.09 C105.35 31.35, 120.84 17.73, 129.74 6.86 M99.47 52.26 C104.78 36.91, 115.69 28.55, 129.53 11.58 M97.16 50.19 C104.83 39.75, 112.83 27.67, 132.28 8.05 M100.4 51.15 C107.37 38.5, 118.63 32.04, 139.51 6.97 M102.91 50.23 C111.15 36.88, 122.65 24.23, 137.35 7.35 M108.99 50.15 C111.96 39.31, 124.78 26.21, 143.91 8.88 M108.27 48.08 C117.69 39.06, 127.36 27.13, 140.84 9.07 M112.13 46.32 C118.54 36.85, 128.72 34.48, 148.63 14.55 M112.25 50.09 C125.35 34.43, 137.25 20.61, 144.64 12.75 M121.66 44.57 C130.56 34.59, 136.45 26.41, 149.43 9.91 M119.02 46.86 C128.68 38.59, 136.98 27.45, 150.27 10.49 M129.62 48.24 C134.55 40.05, 146.35 30.55, 154.6 12.94 M124.25 45.79 C137.24 35.27, 146.46 19.8, 154.59 14.28 M134.21 42.71 C137.21 31.16, 145.26 25.69, 155.54 17.06 M134.07 42.66 C139.64 34.65, 148.72 24.71, 159.51 13.31 M137.76 40.06 C148.13 33.1, 149.32 26.23, 165.42 18.49 M138.18 40.21 C144.94 33.8, 152.82 24.99, 163.63 17.24 M147.38 40.17 C152.67 34.7, 156.76 25.62, 166.42 14.89 M147.48 41.15 C154.77 30.14, 163.82 21.95, 168.64 16.81 M155.5 35.86 C159.24 34.09, 168.58 21.45, 169.77 19.73 M153.77 39.27 C156.79 32.72, 163.61 24.25, 172.33 18.15 M157.96 37.49 C165.8 35.71, 164.61 26.16, 174.31 17.16 M160.79 35.99 C164.08 31.72, 168.04 28.17, 178.25 19.57 M169.82 34.37 C169.38 31.13, 179.55 20.3, 178.46 16.38 M167.19 35.66 C168.74 31.13, 171.23 30.35, 180.75 17.87 M170.89 36.05 C173.6 31.34, 179.37 23.54, 183.6 18.4 M172.97 34.89 C178.77 30.73, 181.08 22.26, 183.43 20.91 M177.72 33.74 C183.84 27.64, 184.81 26.58, 191.58 19.53 M178.72 33.61 C181.91 29.64, 183.78 29.03, 190.14 22.64 M186.44 33.37 C188.64 29.63, 190.98 24.21, 194.94 23.72 M186.27 32.85 C188.49 28.9, 190.89 25.68, 193.15 22.28 M194.01 29.18 C195.31 28.73, 196.19 25.78, 197.05 23.56 M193.27 30.43 C194.66 28.15, 196.82 25.87, 198.66 23.44 M199.08 29.47 C199.44 28.02, 200.39 27.51, 201.48 24.82 M198.68 28.96 C200.2 27.64, 201.67 26.25, 202.74 24.42" stroke="#a5d8ff" stroke-width="0.5" fill="none"></path><path d="M100.35 2 C133.85 5.57, 153.9 15.96, 207.57 28.47 M104.46 -0.03 C137.18 7.49, 168.16 16.25, 207.3 26.25 M207.32 29.13 C179.32 32.15, 158.3 38.41, 100.57 51.09 M208.28 25.13 C172.6 29.88, 140.88 38.93, 102.07 51.32 M103.46 46.82 C71.81 40.5, 38.2 40.37, -0.41 22.89 M103.72 49.52 C75.44 46.93, 46.44 39.77, -1.66 26.54 M-0.5 26.05 C34.4 17.27, 66.92 8, 103.09 0.27 M0.3 25.67 C25.8 19.18, 54.69 14.79, 102.69 -0.89" stroke="#1971c2" stroke-width="1" fill="none"></path></g><g transform="translate(247.42308044433605 684.5594387478299) rotate(0 46.236328125 7.288888888888891)"><text x="46.236328125" y="0" font-family="Cascadia, Segoe UI Emoji" font-size="12.14814814814815px" fill="#1971c2" text-anchor="middle" style="white-space: pre;" direction="ltr" dominant-baseline="text-before-edge">FallbackCache</text></g><g stroke-linecap="round"><g transform="translate(200.9584960937501 246.82966303079843) rotate(0 -60.70548393660306 -31.327077379736238)"><path d="M-3.58 1.77 C-24.84 2.42, -57.13 4.2, -116.06 2.62 M-115.66 1.99 C-120.4 -12.71, -116.49 -33.25, -118.61 -65.39" stroke="#2f9e44" stroke-width="1.5" fill="none" stroke-dasharray="8 9"></path></g><g transform="translate(200.9584960937501 246.82966303079843) rotate(0 -60.70548393660306 -31.327077379736238)"><path d="M-111.24 -41.24 C-109.95 -46.99, -114.24 -52.07, -117.96 -65.73" stroke="#2f9e44" stroke-width="1.5" fill="none"></path></g><g transform="translate(200.9584960937501 246.82966303079843) rotate(0 -60.70548393660306 -31.327077379736238)"><path d="M-128.33 -40.8 C-122.95 -46.67, -123.14 -51.86, -117.96 -65.73" stroke="#2f9e44" stroke-width="1.5" fill="none"></path></g></g><mask></mask><g stroke-linecap="round"><g transform="translate(201.4087103804892 362.5315099618813) rotate(0 -59.83134522375934 -53.8952476823751)"><path d="M-1.16 -2.7 C-30.31 4.36, -58.99 2.26, -112.91 3.18 M-117.32 1.94 C-115.55 -30.65, -117.26 -70.12, -117.84 -110.82" stroke="#2f9e44" stroke-width="1.5" fill="none" stroke-dasharray="8 9"></path></g></g><mask></mask><g stroke-linecap="round"><g transform="translate(190.36168467627948 470.6858285103886) rotate(0 -55.69272459383237 -55.346845752142144)"><path d="M1.11 -1.44 C-23.37 3.96, -51.07 -2.48, -114.18 -2.25 M-109.38 -1.48 C-106.91 -25.49, -105.6 -52.54, -106.37 -111.37" stroke="#2f9e44" stroke-width="1.5" fill="none" stroke-dasharray="8 9"></path></g></g><mask></mask><g stroke-linecap="round"><g transform="translate(186.36100018481852 577.1259224561961) rotate(0 -55.69272459383237 -50.375067682149535)"><path d="M2.33 3.54 C-24.69 -1.58, -57.82 0.84, -114.98 2.96 M-110.96 0.59 C-112.08 -33.57, -110.41 -69.67, -106.7 -103.53" stroke="#2f9e44" stroke-width="1.5" fill="none" stroke-dasharray="8 9"></path></g></g><mask></mask><g stroke-linecap="round"><g transform="translate(185.25168097476597 691.7257005629365) rotate(0 -55.69272459383237 -57.9978711060069)"><path d="M3.28 0.31 C-41.07 -2.55, -81.5 -0.94, -114.24 0.96 M-112.1 -1.7 C-115.54 -45.99, -108.43 -85.98, -107.85 -113.05" stroke="#2f9e44" stroke-width="1.5" fill="none" stroke-dasharray="8 9"></path></g></g><mask></mask><g transform="translate(97.2135469712187 227.62711251342012) rotate(0 9.4679303420627 6.4660820946956505)"><text x="9.467930342062695" y="0" font-family="Cascadia, Segoe UI Emoji" font-size="10.776803491159438px" fill="#2f9e44" text-anchor="middle" style="white-space: pre;" direction="ltr" dominant-baseline="text-before-edge">hit</text></g><g transform="translate(97.19302730753535 341.8589426680819) rotate(0 9.4679303420627 6.4660820946956505)"><text x="9.467930342062695" y="0" font-family="Cascadia, Segoe UI Emoji" font-size="10.776803491159438px" fill="#2f9e44" text-anchor="middle" style="white-space: pre;" direction="ltr" dominant-baseline="text-before-edge">hit</text></g><g transform="translate(93.74263610327972 443.0271217541539) rotate(0 9.4679303420627 6.4660820946956505)"><text x="9.467930342062695" y="0" font-family="Cascadia, Segoe UI Emoji" font-size="10.776803491159438px" fill="#2f9e44" text-anchor="middle" style="white-space: pre;" direction="ltr" dominant-baseline="text-before-edge">hit</text></g><g transform="translate(87.6175096100697 553.9325793623639) rotate(0 9.4679303420627 6.4660820946956505)"><text x="9.467930342062695" y="0" font-family="Cascadia, Segoe UI Emoji" font-size="10.776803491159438px" fill="#2f9e44" text-anchor="middle" style="white-space: pre;" direction="ltr" dominant-baseline="text-before-edge">hit</text></g><g transform="translate(83.12934554189343 668.6722303418587) rotate(0 9.4679303420627 6.466082094695665)"><text x="9.467930342062695" y="0" font-family="Cascadia, Segoe UI Emoji" font-size="10.776803491159438px" fill="#2f9e44" text-anchor="middle" style="white-space: pre;" direction="ltr" dominant-baseline="text-before-edge">hit</text></g><g stroke-linecap="round"><g transform="translate(297.82366943359386 275.55517578125) rotate(0 -3.53302001953125 24.832427978515625)"><path d="M-1.36 1.71 C-3.45 21.52, -5.39 37.69, -5.22 50.23 M0.56 -0.18 C-2.7 13.9, -4.17 27.32, -6.38 49.27" stroke="#2f9e44" stroke-width="1" fill="none"></path></g><g transform="translate(297.82366943359386 275.55517578125) rotate(0 -3.53302001953125 24.832427978515625)"><path d="M-13.79 26.73 C-10.47 36.47, -7.18 42.51, -4.54 49.84 M-11.87 24.83 C-11.49 31.78, -9.21 37.97, -5.7 48.88" stroke="#2f9e44" stroke-width="1" fill="none"></path></g><g transform="translate(297.82366943359386 275.55517578125) rotate(0 -3.53302001953125 24.832427978515625)"><path d="M3.22 28.51 C-0.22 37.48, -3.7 42.81, -4.54 49.84 M5.14 26.62 C0.67 32.92, -1.9 38.59, -5.7 48.88" stroke="#2f9e44" stroke-width="1" fill="none"></path></g></g><mask></mask><g stroke-linecap="round"><g transform="translate(292.11676025390636 391.6956787109375) rotate(0 0.499053955078125 21.343048095703125)"><path d="M0.71 1.22 C0.98 14.1, -0.11 32.54, 1.92 42.98 M-0.8 -0.59 C0.31 16.61, 0 32.19, 1.32 41.75" stroke="#2f9e44" stroke-width="1" fill="none"></path></g><g transform="translate(292.11676025390636 391.6956787109375) rotate(0 0.499053955078125 21.343048095703125)"><path d="M-6.89 23.57 C-3.93 28.04, -2.17 38.1, 2.24 42.05 M-8.4 21.77 C-4.2 29.98, -1.43 36.52, 1.64 40.82" stroke="#2f9e44" stroke-width="1" fill="none"></path></g><g transform="translate(292.11676025390636 391.6956787109375) rotate(0 0.499053955078125 21.343048095703125)"><path d="M7.67 22.38 C5.41 27.37, 1.93 37.86, 2.24 42.05 M6.16 20.57 C4.7 29.14, 1.82 36.14, 1.64 40.82" stroke="#2f9e44" stroke-width="1" fill="none"></path></g></g><mask></mask><g stroke-linecap="round"><g transform="translate(292.85369873046886 501.361572265625) rotate(0 -0.822113037109375 22.57366943359375)"><path d="M-1.39 -0.83 C-1.18 10.27, -0.88 22.89, -1.56 46.01 M-0.85 -0.95 C-0.76 12.16, -1.71 23.52, -1.58 45.77" stroke="#2f9e44" stroke-width="1" fill="none"></path></g><g transform="translate(292.85369873046886 501.361572265625) rotate(0 -0.822113037109375 22.57366943359375)"><path d="M-10.56 23.66 C-8.11 28.93, -5.58 35.79, -1.5 46.63 M-10.01 23.53 C-7.56 30.4, -6.07 35.44, -1.52 46.38" stroke="#2f9e44" stroke-width="1" fill="none"></path></g><g transform="translate(292.85369873046886 501.361572265625) rotate(0 -0.822113037109375 22.57366943359375)"><path d="M4.89 23.76 C3.62 29.13, 2.41 35.96, -1.5 46.63 M5.44 23.64 C3.8 30.35, 1.19 35.36, -1.52 46.38" stroke="#2f9e44" stroke-width="1" fill="none"></path></g></g><mask></mask><g stroke-linecap="round"><g transform="translate(294.1707763671876 608.4066772460938) rotate(0 -2.00897216796875 26.412139892578125)"><path d="M1.55 -3.92 C-5.61 20.76, -7.03 44.99, -1.55 49.63 M-1.93 -1.72 C-2.11 18.64, -3.1 38.89, -5.83 53.72" stroke="#2f9e44" stroke-width="1" fill="none"></path></g><g transform="translate(294.1707763671876 608.4066772460938) rotate(0 -2.00897216796875 26.412139892578125)"><path d="M-10.33 27.33 C-10.77 38.87, -8.59 50.2, -4.59 52.12 M-12.07 28.43 C-9.44 37.92, -7.11 47.28, -6.73 54.17" stroke="#2f9e44" stroke-width="1" fill="none"></path></g><g transform="translate(294.1707763671876 608.4066772460938) rotate(0 -2.00897216796875 26.412139892578125)"><path d="M6.61 29.65 C-0.53 40.29, -5.07 50.71, -4.59 52.12 M4.87 30.75 C0.95 39.2, -3.27 47.66, -6.73 54.17" stroke="#2f9e44" stroke-width="1" fill="none"></path></g></g><mask></mask><g stroke-linecap="round" transform="translate(168.98562622070324 187.8465576171875) rotate(0 119.18788146972656 275.11248779296875)"><path d="M1.12 -3.25 C60.13 -1.01, 117.26 1.67, 241.48 -0.13 M239.5 -0.79 C240.37 126.31, 238.78 253.47, 238.48 551.34 M235.52 550.62 C186.48 550.66, 132.02 552.22, -2.34 551.81 M-1.2 549.28 C-2.79 412.93, -2.28 276.98, -0.39 0.02" stroke="#f08c00" stroke-width="1.5" fill="none" stroke-dasharray="8 9"></path></g><g stroke-linecap="round" transform="translate(432.249111095777 185.78566833670754) rotate(0 69.73923118937947 16.90735534493308)"><path d="M0 0 C0 0, 0 0, 0 0 M0 0 C0 0, 0 0, 0 0 M0.18 7.08 C0.09 3.42, 1.91 4.01, 5.47 -0.34 M0 5.88 C1.27 3.97, 3.65 2.05, 5.63 0.58 M-2.38 11.41 C0.07 8.86, 3.35 2.59, 13.49 0.82 M0.02 11.2 C2.96 6.85, 5.73 5.89, 11.41 -0.51 M-1.56 21.71 C7.04 9.4, 16.16 0.72, 15.47 -0.17 M-1.37 16.9 C3.54 14.56, 5.01 8.65, 14.03 1.34 M3.17 27.79 C9.86 12.3, 16.31 6.63, 22 2.38 M-0.33 26.01 C5.35 17.06, 12.77 12.07, 20.57 -0.38 M-3.83 29.8 C5.2 23.95, 11.75 18.85, 24.42 -1.65 M1.64 28.95 C7.76 22.09, 16.46 15.4, 28.23 -1.7 M1.96 36.54 C10.89 18.14, 26.45 4.86, 31.9 1.11 M-0.21 36.31 C12.23 22.01, 22.24 13.56, 31.34 0 M5.23 35.01 C12.05 30.32, 20.12 20.09, 33.45 1.08 M5.85 34.28 C15.34 21.23, 28.73 10.3, 35.91 -0.74 M11.69 37.09 C18.13 20.46, 33.65 12.06, 45.87 -0.89 M9.87 35.19 C21.55 26.3, 32.52 13.39, 42.63 1.77 M17.7 37.5 C27.44 25.68, 36.49 19.95, 51.05 -0.13 M16.97 33.54 C25.16 27.9, 30.04 18.17, 49.26 1.75 M23.77 35.85 C27.49 24.09, 38.04 17, 51.92 -2.81 M21.88 35.85 C29.26 26.9, 39.95 16.82, 53.6 1.22 M26.4 37.86 C38.52 27.98, 41.41 16.65, 57.76 -0.51 M27.86 35.93 C39.98 20.64, 50.1 9.8, 59.93 -0.68 M35.49 32.85 C43.49 19.87, 53.13 7.14, 60.13 -0.9 M33.11 36.24 C44.21 24.77, 51.21 11.56, 61.91 -0.35 M42.16 35.08 C50.32 20.89, 59.66 11.12, 66.19 -2.33 M37.78 35.15 C49.36 25.94, 59.73 13.51, 69.06 -0.44 M44.2 37.09 C52.33 25.38, 61.77 9.37, 74.63 -0.46 M42.31 36.3 C51.59 27.34, 58.02 20.96, 73.66 1.44 M45.87 35.11 C58.39 26.78, 70.7 16.35, 77 -2.92 M50.47 35.9 C57.54 22.02, 69.14 13.8, 81.23 2.08 M51.32 38.45 C63.59 29.4, 68.88 14.94, 81.62 -3.88 M55.7 36.04 C61.35 25.49, 69.34 16.99, 85.43 -0.06 M56.47 30.82 C64.58 25.89, 77.54 16.22, 90.93 1.3 M60.14 35.96 C69.63 22.79, 82.85 6.47, 90.51 0.52 M66.34 35.79 C77.1 28.33, 85.62 13.25, 93.37 1.43 M64.97 33.46 C75.35 23.65, 88.89 11.26, 94.26 -0.41 M70.98 38.04 C79.48 22.22, 86.12 16.75, 96.77 2.87 M69.45 36.11 C79.91 25.33, 87.13 14.63, 102.43 0.57 M78.8 32.89 C88.65 23.65, 97.5 14.17, 104.2 -1.05 M77.28 34.63 C86.09 19.89, 98.88 6.56, 107.68 -2.18 M84.47 35.52 C86.33 23.52, 96.24 14.67, 107.37 3.27 M79.56 34.17 C88.06 24.73, 97.21 14.19, 112 1.94 M86.3 34.47 C94.36 23.83, 107.92 8.42, 117.84 3.89 M85.25 35.63 C94.42 25.09, 100.88 18.56, 117.02 -0.14 M94.08 32.94 C101.93 23.57, 109.46 8.15, 123.66 0.9 M92.07 34.98 C101.86 21.66, 112.99 10.82, 121.69 0.36 M98.51 34.19 C103.66 23.95, 110.96 20.69, 130.06 0.11 M96.97 36.58 C105.22 25.56, 111.32 18.02, 126.04 1.71 M103.02 34.93 C114.92 20.79, 122.34 9.91, 130.62 3.11 M103.06 36.44 C111.03 22.44, 121.77 15.43, 131.43 1.62 M109.17 34.66 C120.44 23.2, 124.3 16.34, 136.71 -3.32 M106.02 35.61 C116.3 24.7, 129.82 11.62, 137.01 0.66 M115.88 37.81 C117.45 25.08, 127 11.75, 139.98 -0.32 M112.42 36.2 C123.8 23.17, 135.76 8.36, 143.32 1.01 M116.07 35.39 C122.33 23.1, 133.95 19.37, 141.81 4.41 M117.42 34.92 C126.26 27.95, 134.81 15.63, 140.76 5.82 M121.31 38.59 C132.8 27.96, 136.52 20.13, 140.32 13.67 M124.49 34.7 C129.38 25.81, 136.12 18.36, 141.71 16.19 M125.06 36.88 C136.64 32.69, 137.74 25.41, 144.61 22.47 M129.68 34.71 C133.74 27.18, 140.08 23.35, 141.77 18.79 M132.66 35.39 C137.5 33.49, 139.68 27.21, 142.57 26.79 M133.89 34.33 C135.53 31.26, 139.27 28.81, 141.45 26.67" stroke="#ffec99" stroke-width="0.5" fill="none"></path><path d="M1.9 3.61 C44.15 4.45, 83.37 2.85, 139.41 0.25 M-1.13 0.44 C36.68 0.29, 71.54 -2.68, 137.95 -1.19 M141.71 2.33 C142.82 10.56, 137.32 14.96, 137.93 35.35 M141.45 -0.3 C137.61 6.53, 139.81 13.13, 139.81 34.53 M142.37 30.03 C85.51 34.27, 33.68 29.39, -3.71 35.95 M138.07 31.86 C91.67 34.54, 43.3 32.67, -0.02 35.07 M-0.62 35.01 C-0.06 20.42, -0.03 10.72, 0.96 -2.14 M-1.67 35.76 C2.22 25.11, 1.73 14.84, 0.17 0.3" stroke="#f08c00" stroke-width="1" fill="none"></path></g><g transform="translate(478.4454269409182 195.80124080842393) rotate(0 23.54291534423828 6.891782873216698)"><text x="23.54291534423828" y="0" font-family="Cascadia, Segoe UI Emoji" font-size="11.486304788694467px" fill="#f08c00" text-anchor="middle" style="white-space: pre;" direction="ltr" dominant-baseline="text-before-edge">channel</text></g><g stroke-linecap="round"><g transform="translate(498.1729617543707 120.65594482421875) rotate(0 0.875734253566975 30.82025146484375)"><path d="M3.29 1.49 C-1.2 20.89, -3.5 35.53, 4.09 59.88" stroke="#e03131" stroke-width="1.5" fill="none" stroke-dasharray="8 9"></path></g><g transform="translate(498.1729617543707 120.65594482421875) rotate(0 0.875734253566975 30.82025146484375)"><path d="M-7.7 39.54 C-5.77 46.27, -2.98 50.53, 5.26 59" stroke="#e03131" stroke-width="1.5" fill="none"></path></g><g transform="translate(498.1729617543707 120.65594482421875) rotate(0 0.875734253566975 30.82025146484375)"><path d="M9 35.84 C5.67 43.61, 3.22 49.04, 5.26 59" stroke="#e03131" stroke-width="1.5" fill="none"></path></g></g><mask></mask><g stroke-linecap="round" transform="translate(435.39400855671437 278.69313903983254) rotate(0 69.73923118937947 16.90735534493308)"><path d="M0 0 C0 0, 0 0, 0 0 M0 0 C0 0, 0 0, 0 0 M0.37 6.94 C1.11 3.35, 3.64 3.03, 5.76 1.49 M-0.28 6.35 C2.3 4.35, 3.27 2.43, 5.46 0.96 M2.71 11.47 C1.45 11.79, 5.42 7.64, 12.8 2.69 M-0.01 10.55 C2.82 7.45, 7.16 4.94, 11.39 -0.78 M2.14 20.5 C2.57 14.3, 13 7.65, 14.82 4.18 M1.16 19.7 C2.74 13.43, 8.9 8.09, 14.06 -1.09 M1.08 25.75 C3.48 13.33, 15.26 11.53, 23.63 1.15 M1.18 25.96 C7.28 14.58, 12.75 6.1, 23.24 0.43 M-3.26 33.25 C6.37 21.08, 17.98 12.49, 27.62 -2.91 M-0.68 29.37 C11.02 20.01, 18.43 10.62, 27.91 -0.98 M0.16 32.61 C5.15 23.33, 18.11 12.83, 30.82 -1.34 M-0.54 36.54 C10.09 25.29, 19.72 13.57, 32.63 -1.77 M6.22 33.84 C11.12 25.72, 23.35 19.45, 39.57 -2.93 M7.42 36.22 C18 20.66, 30.37 9.17, 37.77 -0.49 M15.26 37.25 C24.8 24, 38.48 6.01, 39.14 -3.38 M10.43 34.32 C21.55 20.85, 35.76 10.27, 44.09 1.77 M19.44 34.74 C27.88 28.67, 33.23 13.94, 43.86 3.37 M15.54 34.24 C29.64 22.34, 39.68 8.66, 48.76 -0.8 M24.99 34.98 C31.35 19.77, 42.25 9.34, 49.75 -2.23 M21.72 35.08 C31.19 23.46, 40.46 15.78, 53.98 0.85 M28.85 36 C38.77 25.4, 40.24 16.28, 60.63 3.28 M28.48 35.37 C36.97 21.96, 50.07 7.66, 59.01 0.38 M36.73 37.85 C36.81 30.82, 45.6 18.02, 64.75 2.96 M31.85 34.71 C39.89 24.57, 50.92 14.98, 64.71 -0.28 M39.81 31.19 C49.66 21.71, 59.21 16.71, 68.93 0.15 M37.01 33.5 C45.63 26.56, 52.19 19.52, 69.66 -1.21 M40.79 33.95 C54.62 23.1, 65.78 10.18, 75.17 -0.95 M42.34 34.6 C55.57 21.96, 67.3 8.19, 74.69 -0.87 M46.6 31.94 C56.52 22.39, 67.59 18.03, 82.77 1.4 M47.94 35.01 C58.31 24.21, 72.53 9.45, 78.93 1.65 M54.43 31.47 C65.65 19.41, 74.66 6.19, 88.98 3.01 M55.76 35.58 C60.79 25.95, 69.37 20.79, 84.39 -1.72 M60.44 31.96 C72.08 19.4, 83.18 8.55, 91.09 -1.49 M58.1 36.71 C69.07 20.59, 80.51 8.24, 88.03 1.66 M61.83 38.62 C77.11 24.98, 87.94 13.05, 95.1 1.85 M65.72 35.98 C71.74 25.73, 81.34 14.65, 94.3 0.84 M73.5 35.01 C77.97 22.13, 97.16 7.56, 101.78 3.03 M72.36 35.9 C77.74 26.56, 84.09 21.63, 99.23 -1.03 M74.13 35.71 C82.2 23.34, 93.36 14.01, 107.36 -3.36 M74.85 33.57 C83.19 26.45, 90.6 18.34, 106.94 0.96 M78.86 34.92 C94.69 19.32, 101.18 10.96, 113.63 2.56 M81.62 36.35 C87.57 24.12, 98.42 16.8, 109.8 -0.79 M85.38 35.09 C97.33 24.43, 106.73 13.43, 119.9 -0.73 M84.8 35.6 C91.05 28.04, 100.07 19.13, 116.21 2.01 M90.57 35.56 C102.16 23.59, 110.83 14.24, 120.41 -3.23 M92.79 34.31 C102.05 19.85, 115.52 7.04, 122.06 -0.52 M100.6 37.18 C103.88 20.62, 115.31 9.35, 129.75 1.44 M98.28 36.81 C108.18 20.41, 119.18 8.29, 128.01 -0.46 M99.59 30.9 C111.74 27.06, 120.72 12.58, 130.81 1.4 M102.85 36.46 C112.92 21.48, 121.31 9.93, 133.38 -1.67 M107.72 34.46 C113.51 25.39, 123.22 17.08, 136.92 -0.83 M109.01 33.36 C113.7 24.47, 123.3 19.38, 138.28 -0.13 M109.19 33.7 C117.7 23.95, 132.69 19.15, 139.15 -2.25 M112.13 34.74 C121.33 23.99, 129.72 13.38, 140.81 3.31 M121.62 31.48 C121.13 32.16, 126.5 23.36, 144.44 9.31 M119.75 36.93 C123.24 27.01, 128.22 20.13, 143.13 6.56 M125.51 36.53 C128.63 29.99, 131.74 20.03, 139.45 15.48 M124.95 37.29 C126.93 30.01, 131.14 24.94, 141.25 15.73 M132.12 32.83 C137.17 28.18, 141.84 27.19, 145.46 16.26 M128.27 36.64 C132.52 27.61, 136.16 22.63, 139.85 21.08 M133.65 35.89 C134.75 32.14, 137.75 29.92, 140.42 26.36 M132.48 35.1 C135.26 34.51, 135.71 33.03, 140.36 26.4" stroke="#ffc9c9" stroke-width="0.5" fill="none"></path><path d="M-0.45 3.57 C32.07 3.22, 71.89 -2.69, 136.14 -2.93 M1.35 -1.99 C27.7 -1.92, 56.25 -0.56, 138.54 -0.62 M135.9 0.13 C140.48 10.36, 140.92 26.66, 138.5 33.6 M140.38 -1.21 C140.32 7.52, 139.17 15.14, 139.02 33.21 M138.17 32.57 C107.66 39.65, 79.8 39.46, -2.58 35.76 M139.97 34.06 C103.63 33.45, 64.54 34.02, 1.6 32.72 M2.23 34.91 C-0.11 29.74, 3.44 15.71, -0.25 2.26 M-0.9 34.47 C-1.92 23.08, -1.56 15.86, 0.53 0.83" stroke="#e03131" stroke-width="1" fill="none"></path></g><g transform="translate(468.1372299194337 288.7087115115489) rotate(0 36.996009826660156 6.891782873216698)"><text x="36.996009826660156" y="0" font-family="Cascadia, Segoe UI Emoji" font-size="11.486304788694467px" fill="#e03131" text-anchor="middle" style="white-space: pre;" direction="ltr" dominant-baseline="text-before-edge">usage stats</text></g><g stroke-linecap="round"><g transform="translate(504.0112304687501 276.53863525390625) rotate(0 0.3983154296875 -26.101852416992188)"><path d="M2.88 1.58 C-0.07 -13.09, -3.08 -26.36, -1.87 -54.41" stroke="#f08c00" stroke-width="1.5" fill="none" stroke-dasharray="8 9"></path></g><g transform="translate(504.0112304687501 276.53863525390625) rotate(0 0.3983154296875 -26.101852416992188)"><path d="M8.05 -30.11 C4.25 -36.71, 0.48 -42.69, -3.21 -55.52" stroke="#f08c00" stroke-width="1.5" fill="none"></path></g><g transform="translate(504.0112304687501 276.53863525390625) rotate(0 0.3983154296875 -26.101852416992188)"><path d="M-9.05 -30.16 C-8.5 -36.88, -7.91 -42.84, -3.21 -55.52" stroke="#f08c00" stroke-width="1.5" fill="none"></path></g></g><mask></mask><g stroke-linecap="round"><g transform="translate(414.19293212890636 504.3902587890625) rotate(0 47.80755615234375 -91.99673461914062)"><path d="M-0.59 -2.98 C13.36 -17.41, 26.72 -39.18, 62.51 -90.58 M66.92 -86.96 C70.83 -121.63, 85.11 -148.92, 93.03 -182.97" stroke="#f08c00" stroke-width="1.5" fill="none" stroke-dasharray="8 9"></path></g><g transform="translate(414.19293212890636 504.3902587890625) rotate(0 47.80755615234375 -91.99673461914062)"><path d="M94.46 -159.52 C93.81 -161.98, 93.45 -168.56, 92.67 -182.97" stroke="#f08c00" stroke-width="1.5" fill="none"></path></g><g transform="translate(414.19293212890636 504.3902587890625) rotate(0 47.80755615234375 -91.99673461914062)"><path d="M78.02 -164.25 C80.8 -165.82, 83.91 -171.41, 92.67 -182.97" stroke="#f08c00" stroke-width="1.5" fill="none"></path></g></g><mask></mask><g stroke-linecap="round" transform="translate(10 10) rotate(0 293.13533020019537 373.87762451171875)"><path d="M-0.04 -0.89 C177.65 2.24, 354.06 1.35, 585.18 -1.58 M0.57 -0.78 C121.72 -0.55, 241.93 -0.46, 586.76 0.14 M587.16 0.54 C579.86 238.34, 581.12 474.66, 585.36 748.77 M585.87 -0.3 C580.74 155.37, 581.55 311.53, 585.88 747.96 M585.23 747.27 C407.11 751.38, 229.17 750.33, -1.25 748.03 M586.92 747.29 C372.69 746.33, 157.56 746.48, 0.76 748.21 M-0.86 747.88 C-1.96 468.16, 0.51 188.82, 1.5 -0.38 M-0.67 746.97 C-4.33 556.47, -4.16 364.58, 0.76 0.13" stroke="#1e1e1e" stroke-width="1" fill="none"></path></g></svg>